<svg width="21" height="36" viewBox="0 0 21 36" fill="none" xmlns="http://www.w3.org/2000/svg">
<path d="M17.5 4.5V1.5H4.5V5.5H5.5V8.5H6.5V12.5H2.5V15.5H3.5V19.5H4.5V25.5H5.5V27.5H17.5V24.5H16.5V23.5H15.5H14.5V22.5H13.5V22V20.5H16.5V17.5H20.5V15.5H19.5V15V10.5H18.5V9.5V4.5H17.5Z" fill="#FCE900" stroke="black"/>
<path d="M17.5 3.5V0.5H4.5V4.5H5.5V7.5H6.5V11.5H2.5V14.5H3.5V18.5H4.5V24.5H5.5V26.5H17.5V23.5H16.5V22.5H15.5H14.5V21.5H13.5V21V19.5H16.5V16.5H20.5V14.5H19.5V14V9.5H18.5V8.5V3.5H17.5Z" fill="#FCE900" stroke="black"/>
<path d="M15.5 3.5V0.5H2.5V4.5H3.5V7.5H4.5V11.5H0.5V14.5H1.5V18.5H2.5V24.5H3.5V26.5H15.5V23.5H14.5V22.5H13.5H12.5V21.5H11.5V21V19.5H14.5V16.5H18.5V14.5H17.5V14V9.5H16.5V8.5V3.5H15.5Z" fill="#FCE900" stroke="black"/>
<path d="M15.5 5.5V2.5H2.5V6.5H3.5V9.5H4.5V13.5H0.5V16.5H1.5V20.5H2.5V26.5H3.5V28.5H5.5L6.5 31L5.5 34.5H10.5V32.5H8.5L9.5 30.5L8.5 28.5H12.5L13.5 31.5L12.5 35.5H15.5H16.5V33.5H15.5L17.5 31L15 28.5H16.5L16.3864 25.5H14.5V24.5H13.5H12.5V23.5H11.5V23V21.5H14.5V18.5H18.5V16.5H17.5V16V11.5H16.5V10.5V5.5H15.5Z" fill="#FCE900" stroke="black"/>
<path d="M16.5 4.5V1.5H3.5V5.5H4.5V8.5H5.5V12.5H1.5V15.5H2.5V19.5H3.5V25.5H4.5V27.5H16.5V24.5H15.5V23.5H14.5H13.5V22.5H12.5V22V20.5H15.5V17.5H19.5V15.5H18.5V15V10.5H17.5V9.5V4.5H16.5Z" fill="#FCE900" stroke="#FCE900"/>
<path d="M10 6.5H11.5V5.5H12.5H13.5H14.5V6.5V7.5H15.5V8.5V10.5H14.5V11.5H11.5V10.5H10.5V9.5V8.5H12H9" stroke="black"/>
</svg>
